<mxfile host="app.diagrams.net" modified="2023-06-07T08:19:12.302Z" agent="Mozilla/5.0 (Macintosh; Intel Mac OS X 10_15_7) AppleWebKit/537.36 (KHTML, like Gecko) Chrome/113.0.0.0 Safari/537.36" etag="9vBOtrhMUQnLY0F_6Oo4" version="21.3.7" type="github">
  <diagram name="第 1 页" id="VlbDRRU05p334B86dTlG">
    <mxGraphModel dx="1242" dy="795" grid="1" gridSize="10" guides="1" tooltips="1" connect="1" arrows="1" fold="1" page="1" pageScale="1" pageWidth="827" pageHeight="1169" math="0" shadow="0">
      <root>
        <mxCell id="0" />
        <mxCell id="1" parent="0" />
        <mxCell id="4rPt64J2OixNxiuJa1zP-12" value="" style="rounded=0;whiteSpace=wrap;html=1;sketch=1;curveFitting=1;jiggle=2;" vertex="1" parent="1">
          <mxGeometry x="90" y="110" width="400" height="350" as="geometry" />
        </mxCell>
        <mxCell id="4rPt64J2OixNxiuJa1zP-2" value="&lt;font style=&quot;font-size: 18px;&quot;&gt;战绩&lt;/font&gt;" style="rounded=1;whiteSpace=wrap;html=1;fillColor=#ffe6cc;strokeColor=#d79b00;sketch=1;curveFitting=1;jiggle=2;" vertex="1" parent="1">
          <mxGeometry x="110" y="140" width="80" height="40" as="geometry" />
        </mxCell>
        <mxCell id="4rPt64J2OixNxiuJa1zP-3" value="&lt;font style=&quot;font-size: 18px;&quot;&gt;签到&lt;/font&gt;" style="rounded=1;whiteSpace=wrap;html=1;fillColor=#ffe6cc;strokeColor=#d79b00;sketch=1;curveFitting=1;jiggle=2;" vertex="1" parent="1">
          <mxGeometry x="110" y="200" width="80" height="40" as="geometry" />
        </mxCell>
        <mxCell id="4rPt64J2OixNxiuJa1zP-4" value="&lt;font style=&quot;font-size: 18px;&quot;&gt;动态&lt;/font&gt;" style="rounded=1;whiteSpace=wrap;html=1;fillColor=#ffe6cc;strokeColor=#d79b00;sketch=1;curveFitting=1;jiggle=2;" vertex="1" parent="1">
          <mxGeometry x="110" y="260" width="80" height="40" as="geometry" />
        </mxCell>
        <mxCell id="4rPt64J2OixNxiuJa1zP-5" value="&lt;font style=&quot;font-size: 18px;&quot;&gt;话题&lt;/font&gt;" style="rounded=1;whiteSpace=wrap;html=1;fillColor=#ffe6cc;strokeColor=#d79b00;sketch=1;curveFitting=1;jiggle=2;" vertex="1" parent="1">
          <mxGeometry x="110" y="330" width="80" height="40" as="geometry" />
        </mxCell>
        <mxCell id="4rPt64J2OixNxiuJa1zP-6" value="&lt;font style=&quot;font-size: 18px;&quot;&gt;问答&lt;/font&gt;" style="rounded=1;whiteSpace=wrap;html=1;fillColor=#ffe6cc;strokeColor=#d79b00;sketch=1;curveFitting=1;jiggle=2;" vertex="1" parent="1">
          <mxGeometry x="110" y="390" width="80" height="40" as="geometry" />
        </mxCell>
        <mxCell id="4rPt64J2OixNxiuJa1zP-7" value="&lt;font style=&quot;font-size: 18px;&quot;&gt;资料卡&lt;/font&gt;" style="rounded=1;whiteSpace=wrap;html=1;fillColor=#ffe6cc;strokeColor=#d79b00;sketch=1;curveFitting=1;jiggle=2;" vertex="1" parent="1">
          <mxGeometry x="240" y="200" width="80" height="40" as="geometry" />
        </mxCell>
        <mxCell id="4rPt64J2OixNxiuJa1zP-8" value="&lt;span style=&quot;font-size: 18px;&quot;&gt;搜索&lt;/span&gt;" style="rounded=1;whiteSpace=wrap;html=1;fillColor=#ffe6cc;strokeColor=#d79b00;sketch=1;curveFitting=1;jiggle=2;" vertex="1" parent="1">
          <mxGeometry x="240" y="140" width="80" height="40" as="geometry" />
        </mxCell>
        <mxCell id="4rPt64J2OixNxiuJa1zP-9" value="&lt;font style=&quot;font-size: 18px;&quot;&gt;资讯&lt;/font&gt;" style="rounded=1;whiteSpace=wrap;html=1;fillColor=#ffe6cc;strokeColor=#d79b00;sketch=1;curveFitting=1;jiggle=2;" vertex="1" parent="1">
          <mxGeometry x="240" y="260" width="80" height="40" as="geometry" />
        </mxCell>
        <mxCell id="4rPt64J2OixNxiuJa1zP-10" value="&lt;font style=&quot;font-size: 18px;&quot;&gt;组团&lt;/font&gt;" style="rounded=1;whiteSpace=wrap;html=1;fillColor=#ffe6cc;strokeColor=#d79b00;sketch=1;curveFitting=1;jiggle=2;" vertex="1" parent="1">
          <mxGeometry x="240" y="330" width="80" height="40" as="geometry" />
        </mxCell>
        <mxCell id="4rPt64J2OixNxiuJa1zP-11" value="&lt;font style=&quot;font-size: 18px;&quot;&gt;……&lt;/font&gt;" style="rounded=1;whiteSpace=wrap;html=1;fillColor=#ffe6cc;strokeColor=#d79b00;sketch=1;curveFitting=1;jiggle=2;" vertex="1" parent="1">
          <mxGeometry x="374" y="390" width="80" height="40" as="geometry" />
        </mxCell>
        <mxCell id="4rPt64J2OixNxiuJa1zP-13" value="将一个大的App拆解成不同的功能模块，再通过某种方式可以让模块与模块之间进行通讯" style="text;html=1;strokeColor=none;fillColor=none;align=center;verticalAlign=middle;whiteSpace=wrap;rounded=0;fontSize=14;" vertex="1" parent="1">
          <mxGeometry x="145" y="50" width="290" height="50" as="geometry" />
        </mxCell>
        <mxCell id="4rPt64J2OixNxiuJa1zP-14" value="&lt;font style=&quot;font-size: 18px;&quot;&gt;IM&lt;/font&gt;" style="rounded=1;whiteSpace=wrap;html=1;fillColor=#ffe6cc;strokeColor=#d79b00;sketch=1;curveFitting=1;jiggle=2;" vertex="1" parent="1">
          <mxGeometry x="373.5" y="140" width="80" height="40" as="geometry" />
        </mxCell>
        <mxCell id="4rPt64J2OixNxiuJa1zP-15" value="&lt;font style=&quot;font-size: 18px;&quot;&gt;专栏&lt;/font&gt;" style="rounded=1;whiteSpace=wrap;html=1;fillColor=#ffe6cc;strokeColor=#d79b00;sketch=1;curveFitting=1;jiggle=2;" vertex="1" parent="1">
          <mxGeometry x="374" y="200" width="80" height="40" as="geometry" />
        </mxCell>
        <mxCell id="4rPt64J2OixNxiuJa1zP-17" value="&lt;span style=&quot;font-size: 18px;&quot;&gt;投票&lt;/span&gt;" style="rounded=1;whiteSpace=wrap;html=1;fillColor=#ffe6cc;strokeColor=#d79b00;sketch=1;curveFitting=1;jiggle=2;" vertex="1" parent="1">
          <mxGeometry x="374" y="265" width="80" height="40" as="geometry" />
        </mxCell>
        <mxCell id="4rPt64J2OixNxiuJa1zP-18" value="&lt;font style=&quot;font-size: 18px;&quot;&gt;设置&lt;/font&gt;" style="rounded=1;whiteSpace=wrap;html=1;fillColor=#ffe6cc;strokeColor=#d79b00;sketch=1;curveFitting=1;jiggle=2;" vertex="1" parent="1">
          <mxGeometry x="373.5" y="330" width="80" height="40" as="geometry" />
        </mxCell>
        <mxCell id="4rPt64J2OixNxiuJa1zP-19" value="&lt;font style=&quot;font-size: 18px;&quot;&gt;PK&lt;/font&gt;" style="rounded=1;whiteSpace=wrap;html=1;fillColor=#ffe6cc;strokeColor=#d79b00;sketch=1;curveFitting=1;jiggle=2;" vertex="1" parent="1">
          <mxGeometry x="240" y="390" width="80" height="40" as="geometry" />
        </mxCell>
        <mxCell id="4rPt64J2OixNxiuJa1zP-20" value="&lt;font style=&quot;font-size: 18px;&quot;&gt;CF&lt;/font&gt;" style="ellipse;whiteSpace=wrap;html=1;aspect=fixed;fillColor=#e1d5e7;strokeColor=#9673a6;shadow=0;sketch=1;curveFitting=1;jiggle=2;" vertex="1" parent="1">
          <mxGeometry x="590" y="70" width="80" height="80" as="geometry" />
        </mxCell>
        <mxCell id="4rPt64J2OixNxiuJa1zP-21" value="&lt;font style=&quot;font-size: 18px;&quot;&gt;DNF&lt;/font&gt;" style="ellipse;whiteSpace=wrap;html=1;aspect=fixed;fillColor=#e1d5e7;strokeColor=#9673a6;shadow=0;sketch=1;curveFitting=1;jiggle=2;" vertex="1" parent="1">
          <mxGeometry x="590" y="185" width="80" height="80" as="geometry" />
        </mxCell>
        <mxCell id="4rPt64J2OixNxiuJa1zP-22" value="&lt;font style=&quot;font-size: 18px;&quot;&gt;Lostark&lt;/font&gt;" style="ellipse;whiteSpace=wrap;html=1;aspect=fixed;fillColor=#e1d5e7;strokeColor=#9673a6;shadow=0;sketch=1;curveFitting=1;jiggle=2;" vertex="1" parent="1">
          <mxGeometry x="590" y="300" width="80" height="80" as="geometry" />
        </mxCell>
        <mxCell id="4rPt64J2OixNxiuJa1zP-23" value="&lt;span style=&quot;font-size: 18px;&quot;&gt;长尾&lt;/span&gt;" style="ellipse;whiteSpace=wrap;html=1;aspect=fixed;fillColor=#e1d5e7;strokeColor=#9673a6;shadow=0;sketch=1;curveFitting=1;jiggle=2;" vertex="1" parent="1">
          <mxGeometry x="590" y="420" width="80" height="80" as="geometry" />
        </mxCell>
        <mxCell id="4rPt64J2OixNxiuJa1zP-24" value="" style="shape=curlyBracket;whiteSpace=wrap;html=1;rounded=1;labelPosition=left;verticalLabelPosition=middle;align=right;verticalAlign=middle;" vertex="1" parent="1">
          <mxGeometry x="690" y="70" width="10" height="80" as="geometry" />
        </mxCell>
        <mxCell id="4rPt64J2OixNxiuJa1zP-26" value="&lt;font style=&quot;font-size: 18px;&quot;&gt;资讯&lt;/font&gt;" style="rounded=1;whiteSpace=wrap;html=1;fillColor=#ffe6cc;strokeColor=#d79b00;sketch=1;curveFitting=1;jiggle=2;" vertex="1" parent="1">
          <mxGeometry x="710" y="90" width="80" height="40" as="geometry" />
        </mxCell>
        <mxCell id="4rPt64J2OixNxiuJa1zP-27" value="&lt;font style=&quot;font-size: 18px;&quot;&gt;动态&lt;/font&gt;" style="rounded=1;whiteSpace=wrap;html=1;fillColor=#ffe6cc;strokeColor=#d79b00;sketch=1;curveFitting=1;jiggle=2;" vertex="1" parent="1">
          <mxGeometry x="820" y="90" width="80" height="40" as="geometry" />
        </mxCell>
        <mxCell id="4rPt64J2OixNxiuJa1zP-28" value="&lt;span style=&quot;font-size: 18px;&quot;&gt;战绩&lt;/span&gt;" style="rounded=1;whiteSpace=wrap;html=1;fillColor=#ffe6cc;strokeColor=#d79b00;sketch=1;curveFitting=1;jiggle=2;" vertex="1" parent="1">
          <mxGeometry x="930" y="90" width="80" height="40" as="geometry" />
        </mxCell>
        <mxCell id="4rPt64J2OixNxiuJa1zP-29" value="&lt;span style=&quot;font-size: 18px;&quot;&gt;搜索&lt;/span&gt;" style="rounded=1;whiteSpace=wrap;html=1;fillColor=#ffe6cc;strokeColor=#d79b00;sketch=1;curveFitting=1;jiggle=2;" vertex="1" parent="1">
          <mxGeometry x="1040" y="90" width="80" height="40" as="geometry" />
        </mxCell>
        <mxCell id="4rPt64J2OixNxiuJa1zP-30" value="&lt;font style=&quot;font-size: 18px;&quot;&gt;……&lt;/font&gt;" style="rounded=1;whiteSpace=wrap;html=1;fillColor=#ffe6cc;strokeColor=#d79b00;sketch=1;curveFitting=1;jiggle=2;" vertex="1" parent="1">
          <mxGeometry x="1150" y="90" width="80" height="40" as="geometry" />
        </mxCell>
        <mxCell id="4rPt64J2OixNxiuJa1zP-31" value="" style="shape=curlyBracket;whiteSpace=wrap;html=1;rounded=1;flipH=1;labelPosition=right;verticalLabelPosition=middle;align=left;verticalAlign=middle;" vertex="1" parent="1">
          <mxGeometry x="1241" y="70" width="20" height="80" as="geometry" />
        </mxCell>
        <mxCell id="4rPt64J2OixNxiuJa1zP-32" value="" style="shape=curlyBracket;whiteSpace=wrap;html=1;rounded=1;labelPosition=left;verticalLabelPosition=middle;align=right;verticalAlign=middle;" vertex="1" parent="1">
          <mxGeometry x="690" y="185" width="10" height="80" as="geometry" />
        </mxCell>
        <mxCell id="4rPt64J2OixNxiuJa1zP-33" value="&lt;font style=&quot;font-size: 18px;&quot;&gt;资讯&lt;/font&gt;" style="rounded=1;whiteSpace=wrap;html=1;fillColor=#ffe6cc;strokeColor=#d79b00;sketch=1;curveFitting=1;jiggle=2;" vertex="1" parent="1">
          <mxGeometry x="710" y="205" width="80" height="40" as="geometry" />
        </mxCell>
        <mxCell id="4rPt64J2OixNxiuJa1zP-37" value="&lt;font style=&quot;font-size: 18px;&quot;&gt;……&lt;/font&gt;" style="rounded=1;whiteSpace=wrap;html=1;fillColor=#ffe6cc;strokeColor=#d79b00;sketch=1;curveFitting=1;jiggle=2;" vertex="1" parent="1">
          <mxGeometry x="1150" y="205" width="80" height="40" as="geometry" />
        </mxCell>
        <mxCell id="4rPt64J2OixNxiuJa1zP-38" value="" style="shape=curlyBracket;whiteSpace=wrap;html=1;rounded=1;flipH=1;labelPosition=right;verticalLabelPosition=middle;align=left;verticalAlign=middle;" vertex="1" parent="1">
          <mxGeometry x="1241" y="185" width="20" height="80" as="geometry" />
        </mxCell>
        <mxCell id="4rPt64J2OixNxiuJa1zP-40" value="&lt;font style=&quot;font-size: 18px;&quot;&gt;组团&lt;/font&gt;" style="rounded=1;whiteSpace=wrap;html=1;fillColor=#ffe6cc;strokeColor=#d79b00;sketch=1;curveFitting=1;jiggle=2;" vertex="1" parent="1">
          <mxGeometry x="930" y="205" width="80" height="40" as="geometry" />
        </mxCell>
        <mxCell id="4rPt64J2OixNxiuJa1zP-45" value="" style="shape=curlyBracket;whiteSpace=wrap;html=1;rounded=1;labelPosition=left;verticalLabelPosition=middle;align=right;verticalAlign=middle;" vertex="1" parent="1">
          <mxGeometry x="690" y="300" width="10" height="80" as="geometry" />
        </mxCell>
        <mxCell id="4rPt64J2OixNxiuJa1zP-46" value="&lt;font style=&quot;font-size: 18px;&quot;&gt;资讯&lt;/font&gt;" style="rounded=1;whiteSpace=wrap;html=1;fillColor=#ffe6cc;strokeColor=#d79b00;sketch=1;curveFitting=1;jiggle=2;" vertex="1" parent="1">
          <mxGeometry x="710" y="320" width="80" height="40" as="geometry" />
        </mxCell>
        <mxCell id="4rPt64J2OixNxiuJa1zP-48" value="&lt;font style=&quot;font-size: 18px;&quot;&gt;……&lt;/font&gt;" style="rounded=1;whiteSpace=wrap;html=1;fillColor=#ffe6cc;strokeColor=#d79b00;sketch=1;curveFitting=1;jiggle=2;" vertex="1" parent="1">
          <mxGeometry x="1150" y="320" width="80" height="40" as="geometry" />
        </mxCell>
        <mxCell id="4rPt64J2OixNxiuJa1zP-49" value="" style="shape=curlyBracket;whiteSpace=wrap;html=1;rounded=1;flipH=1;labelPosition=right;verticalLabelPosition=middle;align=left;verticalAlign=middle;" vertex="1" parent="1">
          <mxGeometry x="1241" y="300" width="20" height="80" as="geometry" />
        </mxCell>
        <mxCell id="4rPt64J2OixNxiuJa1zP-53" value="将不同的功能模块按需注册到不同的业务中" style="text;html=1;strokeColor=none;fillColor=none;align=center;verticalAlign=middle;whiteSpace=wrap;rounded=0;fontSize=14;" vertex="1" parent="1">
          <mxGeometry x="790" y="20" width="290" height="50" as="geometry" />
        </mxCell>
        <mxCell id="4rPt64J2OixNxiuJa1zP-54" value="&lt;font style=&quot;font-size: 18px;&quot;&gt;问答&lt;/font&gt;" style="rounded=1;whiteSpace=wrap;html=1;fillColor=#ffe6cc;strokeColor=#d79b00;sketch=1;curveFitting=1;jiggle=2;" vertex="1" parent="1">
          <mxGeometry x="820" y="205" width="80" height="40" as="geometry" />
        </mxCell>
        <mxCell id="4rPt64J2OixNxiuJa1zP-55" value="&lt;font style=&quot;font-size: 18px;&quot;&gt;战绩&lt;/font&gt;" style="rounded=1;whiteSpace=wrap;html=1;fillColor=#ffe6cc;strokeColor=#d79b00;sketch=1;curveFitting=1;jiggle=2;" vertex="1" parent="1">
          <mxGeometry x="820" y="320" width="80" height="40" as="geometry" />
        </mxCell>
        <mxCell id="4rPt64J2OixNxiuJa1zP-56" value="&lt;span style=&quot;font-size: 18px;&quot;&gt;投票&lt;/span&gt;" style="rounded=1;whiteSpace=wrap;html=1;fillColor=#ffe6cc;strokeColor=#d79b00;sketch=1;curveFitting=1;jiggle=2;" vertex="1" parent="1">
          <mxGeometry x="930" y="320" width="80" height="40" as="geometry" />
        </mxCell>
        <mxCell id="4rPt64J2OixNxiuJa1zP-57" value="&lt;font style=&quot;font-size: 18px;&quot;&gt;资料卡&lt;/font&gt;" style="rounded=1;whiteSpace=wrap;html=1;fillColor=#ffe6cc;strokeColor=#d79b00;sketch=1;curveFitting=1;jiggle=2;" vertex="1" parent="1">
          <mxGeometry x="1040" y="320" width="80" height="40" as="geometry" />
        </mxCell>
        <mxCell id="4rPt64J2OixNxiuJa1zP-80" value="" style="shape=curlyBracket;whiteSpace=wrap;html=1;rounded=1;labelPosition=left;verticalLabelPosition=middle;align=right;verticalAlign=middle;" vertex="1" parent="1">
          <mxGeometry x="690" y="420" width="10" height="80" as="geometry" />
        </mxCell>
        <mxCell id="4rPt64J2OixNxiuJa1zP-81" value="&lt;font style=&quot;font-size: 18px;&quot;&gt;资讯&lt;/font&gt;" style="rounded=1;whiteSpace=wrap;html=1;fillColor=#ffe6cc;strokeColor=#d79b00;sketch=1;curveFitting=1;jiggle=2;" vertex="1" parent="1">
          <mxGeometry x="710" y="440" width="80" height="40" as="geometry" />
        </mxCell>
        <mxCell id="4rPt64J2OixNxiuJa1zP-82" value="&lt;font style=&quot;font-size: 18px;&quot;&gt;……&lt;/font&gt;" style="rounded=1;whiteSpace=wrap;html=1;fillColor=#ffe6cc;strokeColor=#d79b00;sketch=1;curveFitting=1;jiggle=2;" vertex="1" parent="1">
          <mxGeometry x="1150" y="440" width="80" height="40" as="geometry" />
        </mxCell>
        <mxCell id="4rPt64J2OixNxiuJa1zP-83" value="" style="shape=curlyBracket;whiteSpace=wrap;html=1;rounded=1;flipH=1;labelPosition=right;verticalLabelPosition=middle;align=left;verticalAlign=middle;" vertex="1" parent="1">
          <mxGeometry x="1241" y="420" width="20" height="80" as="geometry" />
        </mxCell>
        <mxCell id="4rPt64J2OixNxiuJa1zP-87" value="&lt;font style=&quot;font-size: 18px;&quot;&gt;签到&lt;/font&gt;" style="rounded=1;whiteSpace=wrap;html=1;fillColor=#ffe6cc;strokeColor=#d79b00;sketch=1;curveFitting=1;jiggle=2;" vertex="1" parent="1">
          <mxGeometry x="820" y="440" width="80" height="40" as="geometry" />
        </mxCell>
        <mxCell id="4rPt64J2OixNxiuJa1zP-88" value="&lt;font style=&quot;font-size: 18px;&quot;&gt;设置&lt;/font&gt;" style="rounded=1;whiteSpace=wrap;html=1;fillColor=#ffe6cc;strokeColor=#d79b00;sketch=1;curveFitting=1;jiggle=2;" vertex="1" parent="1">
          <mxGeometry x="930" y="440" width="80" height="40" as="geometry" />
        </mxCell>
        <mxCell id="4rPt64J2OixNxiuJa1zP-89" value="&lt;font style=&quot;font-size: 18px;&quot;&gt;专栏&lt;/font&gt;" style="rounded=1;whiteSpace=wrap;html=1;fillColor=#ffe6cc;strokeColor=#d79b00;sketch=1;curveFitting=1;jiggle=2;" vertex="1" parent="1">
          <mxGeometry x="1040" y="440" width="80" height="40" as="geometry" />
        </mxCell>
        <mxCell id="4rPt64J2OixNxiuJa1zP-90" value="&lt;font style=&quot;font-size: 18px;&quot;&gt;PK&lt;/font&gt;" style="rounded=1;whiteSpace=wrap;html=1;fillColor=#ffe6cc;strokeColor=#d79b00;sketch=1;curveFitting=1;jiggle=2;" vertex="1" parent="1">
          <mxGeometry x="1040" y="205" width="80" height="40" as="geometry" />
        </mxCell>
        <mxCell id="4rPt64J2OixNxiuJa1zP-91" value="" style="shape=flexArrow;endArrow=classic;html=1;rounded=0;" edge="1" parent="1">
          <mxGeometry width="50" height="50" relative="1" as="geometry">
            <mxPoint x="510" y="265" as="sourcePoint" />
            <mxPoint x="580" y="265" as="targetPoint" />
          </mxGeometry>
        </mxCell>
        <mxCell id="4rPt64J2OixNxiuJa1zP-92" value="&lt;font style=&quot;font-size: 18px;&quot;&gt;SwitchGameStyle&lt;/font&gt;" style="rounded=1;whiteSpace=wrap;html=1;fillColor=#dae8fc;strokeColor=#6c8ebf;sketch=1;curveFitting=1;jiggle=2;" vertex="1" parent="1">
          <mxGeometry x="210" y="630" width="180" height="40" as="geometry" />
        </mxCell>
        <mxCell id="4rPt64J2OixNxiuJa1zP-94" value="&lt;font style=&quot;font-size: 18px;&quot;&gt;PublishStyle&lt;/font&gt;" style="rounded=1;whiteSpace=wrap;html=1;fillColor=#dae8fc;strokeColor=#6c8ebf;sketch=1;curveFitting=1;jiggle=2;" vertex="1" parent="1">
          <mxGeometry x="210" y="700" width="180" height="40" as="geometry" />
        </mxCell>
        <mxCell id="4rPt64J2OixNxiuJa1zP-95" value="TitleRightButton" style="rounded=0;whiteSpace=wrap;html=1;" vertex="1" parent="1">
          <mxGeometry x="435" y="630" width="175" height="110" as="geometry" />
        </mxCell>
        <mxCell id="4rPt64J2OixNxiuJa1zP-98" value="&lt;p style=&quot;margin: 4px 0px 0px; text-align: center; font-size: 15px;&quot;&gt;&lt;i style=&quot;font-size: 15px;&quot;&gt;&amp;lt;&amp;lt;Interface&amp;gt;&amp;gt;&lt;/i&gt;&lt;br style=&quot;font-size: 15px;&quot;&gt;&lt;b style=&quot;font-size: 15px;&quot;&gt;TitleRightButton&lt;/b&gt;&lt;/p&gt;&lt;hr style=&quot;font-size: 15px;&quot;&gt;&lt;p style=&quot;margin: 0px 0px 0px 4px; font-size: 15px;&quot;&gt;&lt;/p&gt;&lt;p style=&quot;margin: 0px 0px 0px 4px; font-size: 15px;&quot;&gt;+ method1(): InitStyle&lt;br style=&quot;font-size: 15px;&quot;&gt;+ method2(): InitClickEvent&lt;/p&gt;" style="verticalAlign=top;align=left;overflow=fill;fontSize=15;fontFamily=Helvetica;html=1;whiteSpace=wrap;" vertex="1" parent="1">
          <mxGeometry x="280" y="860" width="270" height="120" as="geometry" />
        </mxCell>
        <mxCell id="4rPt64J2OixNxiuJa1zP-100" value="SwitchGameButton" style="swimlane;fontStyle=1;align=center;verticalAlign=top;childLayout=stackLayout;horizontal=1;startSize=26;horizontalStack=0;resizeParent=1;resizeParentMax=0;resizeLast=0;collapsible=1;marginBottom=0;whiteSpace=wrap;html=1;fontSize=14;" vertex="1" parent="1">
          <mxGeometry x="750" y="790" width="220" height="90" as="geometry" />
        </mxCell>
        <mxCell id="4rPt64J2OixNxiuJa1zP-102" value="" style="line;strokeWidth=1;fillColor=none;align=left;verticalAlign=middle;spacingTop=-1;spacingLeft=3;spacingRight=3;rotatable=0;labelPosition=right;points=[];portConstraint=eastwest;strokeColor=inherit;" vertex="1" parent="4rPt64J2OixNxiuJa1zP-100">
          <mxGeometry y="26" width="220" height="8" as="geometry" />
        </mxCell>
        <mxCell id="4rPt64J2OixNxiuJa1zP-103" value="+ method():&amp;nbsp;InitStyle&lt;br style=&quot;font-size: 14px;&quot;&gt;+ method():&amp;nbsp;InitClickEvent" style="text;strokeColor=none;fillColor=none;align=left;verticalAlign=top;spacingLeft=4;spacingRight=4;overflow=hidden;rotatable=0;points=[[0,0.5],[1,0.5]];portConstraint=eastwest;whiteSpace=wrap;html=1;fontSize=14;" vertex="1" parent="4rPt64J2OixNxiuJa1zP-100">
          <mxGeometry y="34" width="220" height="56" as="geometry" />
        </mxCell>
        <mxCell id="4rPt64J2OixNxiuJa1zP-107" value="PublishButton" style="swimlane;fontStyle=1;align=center;verticalAlign=top;childLayout=stackLayout;horizontal=1;startSize=26;horizontalStack=0;resizeParent=1;resizeParentMax=0;resizeLast=0;collapsible=1;marginBottom=0;whiteSpace=wrap;html=1;fontSize=14;" vertex="1" parent="1">
          <mxGeometry x="750" y="940" width="220" height="90" as="geometry" />
        </mxCell>
        <mxCell id="4rPt64J2OixNxiuJa1zP-108" value="" style="line;strokeWidth=1;fillColor=none;align=left;verticalAlign=middle;spacingTop=-1;spacingLeft=3;spacingRight=3;rotatable=0;labelPosition=right;points=[];portConstraint=eastwest;strokeColor=inherit;" vertex="1" parent="4rPt64J2OixNxiuJa1zP-107">
          <mxGeometry y="26" width="220" height="8" as="geometry" />
        </mxCell>
        <mxCell id="4rPt64J2OixNxiuJa1zP-109" value="+ method():&amp;nbsp;InitStyle&lt;br style=&quot;font-size: 14px;&quot;&gt;+ method():&amp;nbsp;InitClickEvent" style="text;strokeColor=none;fillColor=none;align=left;verticalAlign=top;spacingLeft=4;spacingRight=4;overflow=hidden;rotatable=0;points=[[0,0.5],[1,0.5]];portConstraint=eastwest;whiteSpace=wrap;html=1;fontSize=14;" vertex="1" parent="4rPt64J2OixNxiuJa1zP-107">
          <mxGeometry y="34" width="220" height="56" as="geometry" />
        </mxCell>
        <mxCell id="4rPt64J2OixNxiuJa1zP-110" value="" style="endArrow=open;endFill=1;endSize=12;html=1;rounded=0;" edge="1" parent="1">
          <mxGeometry width="160" relative="1" as="geometry">
            <mxPoint x="550" y="910" as="sourcePoint" />
            <mxPoint x="670" y="910" as="targetPoint" />
          </mxGeometry>
        </mxCell>
        <mxCell id="4rPt64J2OixNxiuJa1zP-111" value="Create" style="text;html=1;strokeColor=none;fillColor=none;align=center;verticalAlign=middle;whiteSpace=wrap;rounded=0;" vertex="1" parent="1">
          <mxGeometry x="590" y="870" width="60" height="30" as="geometry" />
        </mxCell>
      </root>
    </mxGraphModel>
  </diagram>
</mxfile>
